<svg preserveAspectRatio="xMidYMid meet" data-bbox="52.32 90.738 579.409 160.436" height="400" viewBox="52.32 90.738 579.409 160.436" width="940" xmlns="http://www.w3.org/2000/svg" data-type="color" role="presentation" aria-hidden="true">
    <g>
        <defs>
            <clipPath id="02abf2bd-0530-4caa-9d92-f2e1fbab6356_comp-lgdnckkt">
                <path d="M158 93h26.91v28H158Zm0 0"></path>
            </clipPath>
            <clipPath id="5aa5026b-41f8-4d6c-a810-653b26e3858e_comp-lgdnckkt">
                <path d="M146.84 91.066H154V93h-7.16Zm0 0"></path>
            </clipPath>
            <clipPath id="282206c3-8984-414a-af64-ba25e3fb55a0_comp-lgdnckkt">
                <path d="M146.84 98H149v3h-2.16Zm0 0"></path>
            </clipPath>
            <clipPath id="d283dbe7-8c61-48e2-bfef-c43ec7f10af4_comp-lgdnckkt">
                <path d="M146.84 113H149v3h-2.16Zm0 0"></path>
            </clipPath>
            <clipPath id="8d3760ac-1fb9-40ea-b8c8-7a7547c42314_comp-lgdnckkt">
                <path d="M146.84 106H154v2h-7.16Zm0 0"></path>
            </clipPath>
            <clipPath id="fc2a76c1-d1d5-4667-9df6-4261654a7da7_comp-lgdnckkt">
                <path d="M146.84 121H154v2.164h-7.16Zm0 0"></path>
            </clipPath>
            <clipPath id="dfe7da58-513a-4c61-acf4-25d93659f833_comp-lgdnckkt">
                <path d="M522 93h26.219v28H522Zm0 0"></path>
            </clipPath>
            <clipPath id="c88c99a6-8746-469f-bbc2-5b3d1a5eaa38_comp-lgdnckkt">
                <path d="M510.145 91.066H517V93h-6.855Zm0 0"></path>
            </clipPath>
            <clipPath id="c5439335-d7e0-4fbb-bb75-ba7e2eca50d6_comp-lgdnckkt">
                <path d="M510.145 98H512v3h-1.855Zm0 0"></path>
            </clipPath>
            <clipPath id="657275a2-6ea9-4981-ad92-b258f4409fa4_comp-lgdnckkt">
                <path d="M510.145 113H512v3h-1.855Zm0 0"></path>
            </clipPath>
            <clipPath id="6647f0d7-8374-4cff-b54d-36fd375d3c3e_comp-lgdnckkt">
                <path d="M510.145 106H517v2h-6.855Zm0 0"></path>
            </clipPath>
            <clipPath id="4e0731d9-fd0e-46e7-b93e-ba841105e009_comp-lgdnckkt">
                <path d="M510.145 121H517v2.164h-6.855Zm0 0"></path>
            </clipPath>
            <clipPath id="e96b7eaf-3c31-4d07-9f8f-892e1a8d4f1a_comp-lgdnckkt">
                <path d="M62 90.691h67V158H62Zm0 0"></path>
            </clipPath>
            <clipPath id="09732806-4f6b-4082-a91b-087865bddace_comp-lgdnckkt">
                <path d="M52.32 134h86.594v67.168H52.32Zm0 0"></path>
            </clipPath>
            <clipPath id="057858b7-4260-435a-b674-6889500eda36_comp-lgdnckkt">
                <path d="M84 146h43.82v46H84Zm0 0"></path>
            </clipPath>
            <clipPath id="b71cbb09-b112-426b-a18a-cca10f87fc0a_comp-lgdnckkt">
                <path d="M64.371 142.555H75V146H64.371Zm0 0"></path>
            </clipPath>
            <clipPath id="bb5f5519-0900-4c7f-a463-1e92e176bfe5_comp-lgdnckkt">
                <path d="M64.371 154H68v4h-3.629Zm0 0"></path>
            </clipPath>
            <clipPath id="c5c7cbb1-d720-4f8e-8224-a32373f82d2e_comp-lgdnckkt">
                <path d="M64.371 180H68v3h-3.629Zm0 0"></path>
            </clipPath>
            <clipPath id="1c238e74-0b57-4f2e-9f02-79e9272bc761_comp-lgdnckkt">
                <path d="M64.371 167H75v4H64.371Zm0 0"></path>
            </clipPath>
            <clipPath id="461edd2d-6347-4a1e-b915-af039319e171_comp-lgdnckkt">
                <path d="M64.371 192H75v3.555H64.371Zm0 0"></path>
            </clipPath>
        </defs>
        <path d="M158.839 195.039v-74.453h22.063v74.453Zm0 0" fill="#929292" data-color="1"></path>
        <path d="M200.258 195.039v-74.453h18.016l1.5 9.61h.609c3.094-3.102 6.39-5.782 9.89-8.032 3.508-2.25 7.712-3.375 12.61-3.375 5.313 0 9.594 1.078 12.844 3.234 3.25 2.149 5.828 5.22 7.734 9.22 3.3-3.395 6.774-6.317 10.422-8.767 3.656-2.457 7.984-3.687 12.984-3.687 8.008 0 13.891 2.68 17.641 8.031 3.75 5.356 5.625 12.684 5.625 21.985v46.234h-22.062v-43.375c0-5.406-.731-9.11-2.188-11.11-1.45-2-3.773-3-6.969-3-3.699 0-7.953 2.403-12.765 7.204v50.281h-22.063v-43.375c0-5.406-.726-9.11-2.172-11.11-1.449-2-3.777-3-6.984-3-3.805 0-8.008 2.403-12.61 7.204v50.281Zm0 0" fill="#929292" data-color="1"></path>
        <path d="M324.821 195.039v-11.86l31.219-45.328h-27.766v-17.265h55.235v11.719l-31.22 45.468h32.267v17.266Zm0 0" fill="#929292" data-color="1"></path>
        <path d="M416.666 196.836c-3.399 0-6.477-.578-9.235-1.735-2.75-1.144-5.078-2.742-6.984-4.796-1.899-2.051-3.371-4.426-4.422-7.125-1.055-2.696-1.578-5.649-1.578-8.86 0-7.8 3.3-13.898 9.906-18.297 6.602-4.406 17.266-7.359 31.984-8.859-.21-3.3-1.187-5.926-2.937-7.875-1.75-1.957-4.68-2.938-8.781-2.938-3.2 0-6.375.606-9.532 1.813-3.148 1.2-6.523 2.844-10.125 4.938l-7.953-14.547a78.001 78.001 0 0 1 15.078-7.063c5.25-1.8 10.829-2.703 16.735-2.703 9.601 0 16.93 2.73 21.984 8.187 5.063 5.45 7.594 13.93 7.594 25.438v42.625h-18.016l-1.5-7.656h-.609c-3.2 2.804-6.547 5.078-10.047 6.828-3.5 1.75-7.355 2.625-11.562 2.625Zm7.5-17.11c2.507 0 4.66-.546 6.453-1.64 1.8-1.102 3.707-2.656 5.718-4.656v-13.063c-7.812 1.106-13.218 2.711-16.218 4.813-3 2.093-4.5 4.593-4.5 7.5 0 2.398.773 4.171 2.328 5.328 1.55 1.148 3.625 1.718 6.219 1.718Zm0 0" fill="#929292" data-color="1"></path>
        <path d="M489.7 196.836c-3.805 0-6.98-1.324-9.532-3.969-2.554-2.656-3.828-5.93-3.828-9.828 0-4.008 1.274-7.336 3.828-9.984 2.551-2.657 5.727-3.985 9.532-3.985 3.8 0 6.976 1.328 9.53 3.985 2.552 2.648 3.829 5.976 3.829 9.984 0 3.898-1.277 7.172-3.828 9.828-2.555 2.645-5.73 3.969-9.531 3.969Zm0 0" fill="#ff225c" data-color="2"></path>
        <path d="M521.955 195.039v-74.453h22.063v74.453Zm0 0" fill="#ff225c" data-color="2"></path>
        <path d="M595.344 196.836c-4.7 0-9.25-.875-13.657-2.625a34.602 34.602 0 0 1-11.625-7.578c-3.355-3.301-6.03-7.38-8.03-12.235-2-4.851-3-10.379-3-16.578 0-6.207 1-11.738 3-16.594 2-4.851 4.675-8.93 8.03-12.234a34.662 34.662 0 0 1 11.625-7.578 36.672 36.672 0 0 1 13.657-2.625c4.707 0 9.238.875 13.593 2.625a34.727 34.727 0 0 1 11.547 7.578c3.352 3.305 6.032 7.383 8.032 12.234 2.007 4.856 3.015 10.387 3.015 16.594 0 6.2-1.008 11.727-3.015 16.578-2 4.856-4.68 8.934-8.032 12.235a34.667 34.667 0 0 1-11.547 7.578 36.131 36.131 0 0 1-13.593 2.625Zm0-17.86c4.508 0 7.914-1.898 10.218-5.703 2.301-3.8 3.454-8.953 3.454-15.453 0-6.508-1.153-11.664-3.453-15.469-2.305-3.8-5.711-5.703-10.22-5.703-4.593 0-8.023 1.903-10.28 5.703-2.25 3.805-3.375 8.961-3.375 15.47 0 6.5 1.125 11.652 3.375 15.452 2.257 3.805 5.687 5.703 10.28 5.703Zm0 0" fill="#ff225c" data-color="2"></path>
        <g clip-path="url(#02abf2bd-0530-4caa-9d92-f2e1fbab6356_comp-lgdnckkt)">
            <path d="M158.969 104.133v-10.79l25.914 12.844h-14.84Zm0 5.832 11.047-1.977h14.851l-25.898 12.84Zm0 0" fill="#929292" data-color="1"></path>
        </g>
        <g clip-path="url(#5aa5026b-41f8-4d6c-a810-653b26e3858e_comp-lgdnckkt)">
            <path d="M146.906 91.027h6.285v1.797h-6.285Zm0 0" fill="#929292" data-color="1"></path>
        </g>
        <path d="M150.05 98.563h3.145v1.8h-3.144Zm0 0" fill="#929292" data-color="1"></path>
        <g clip-path="url(#282206c3-8984-414a-af64-ba25e3fb55a0_comp-lgdnckkt)">
            <path d="M146.906 98.563h1.742v1.8h-1.742Zm0 0" fill="#929292" data-color="1"></path>
        </g>
        <g clip-path="url(#d283dbe7-8c61-48e2-bfef-c43ec7f10af4_comp-lgdnckkt)">
            <path d="M146.906 113.813h1.742v1.707h-1.742Zm0 0" fill="#929292" data-color="1"></path>
        </g>
        <g clip-path="url(#8d3760ac-1fb9-40ea-b8c8-7a7547c42314_comp-lgdnckkt)">
            <path d="M146.906 106.188h6.285v1.8h-6.285Zm0 0" fill="#929292" data-color="1"></path>
        </g>
        <path d="M150.05 113.813h3.145v1.707h-3.144Zm0 0" fill="#929292" data-color="1"></path>
        <g clip-path="url(#fc2a76c1-d1d5-4667-9df6-4261654a7da7_comp-lgdnckkt)">
            <path d="M146.906 121.348h6.285v1.797h-6.285Zm0 0" fill="#929292" data-color="1"></path>
        </g>
        <g clip-path="url(#dfe7da58-513a-4c61-acf4-25d93659f833_comp-lgdnckkt)">
            <path d="M522.277 104.133v-10.79l25.914 12.844h-14.84Zm0 5.832 11.043-1.977h14.856l-25.899 12.84Zm0 0" fill="#ff225c" data-color="2"></path>
        </g>
        <g clip-path="url(#c88c99a6-8746-469f-bbc2-5b3d1a5eaa38_comp-lgdnckkt)">
            <path d="M510.215 91.027h6.285v1.797h-6.285Zm0 0" fill="#ff225c" data-color="2"></path>
        </g>
        <path d="M513.36 98.563h3.144v1.8h-3.145Zm0 0" fill="#ff225c" data-color="2"></path>
        <g clip-path="url(#c5439335-d7e0-4fbb-bb75-ba7e2eca50d6_comp-lgdnckkt)">
            <path d="M510.215 98.563h1.742v1.8h-1.742Zm0 0" fill="#ff225c" data-color="2"></path>
        </g>
        <g clip-path="url(#657275a2-6ea9-4981-ad92-b258f4409fa4_comp-lgdnckkt)">
            <path d="M510.215 113.813h1.742v1.707h-1.742Zm0 0" fill="#ff225c" data-color="2"></path>
        </g>
        <g clip-path="url(#6647f0d7-8374-4cff-b54d-36fd375d3c3e_comp-lgdnckkt)">
            <path d="M510.215 106.188h6.285v1.8h-6.285Zm0 0" fill="#ff225c" data-color="2"></path>
        </g>
        <path d="M513.36 113.813h3.144v1.707h-3.145Zm0 0" fill="#ff225c" data-color="2"></path>
        <g clip-path="url(#4e0731d9-fd0e-46e7-b93e-ba841105e009_comp-lgdnckkt)">
            <path d="M510.215 121.348h6.285v1.797h-6.285Zm0 0" fill="#ff225c" data-color="2"></path>
        </g>
        <path d="M52.36 244.58v-22.156h5v8.531h7.656v-8.531h5.015v22.156h-5.015v-9.25h-7.657v9.25Zm0 0" fill="#919191" data-color="3"></path>
        <path d="M75.64 244.58v-16.86h5v16.86Zm0 0" fill="#919191" data-color="3"></path>
        <path d="M84.895 244.58v-2.688l7.062-10.265h-6.28v-3.906h12.5v2.656l-7.063 10.297h7.296v3.906Zm0 0" fill="#919191" data-color="3"></path>
        <path d="M106.81 244.986c-.867 0-1.594-.136-2.188-.406a3.468 3.468 0 0 1-1.406-1.14c-.344-.489-.601-1.079-.765-1.766-.157-.688-.235-1.461-.235-2.328v-18.594h5v18.797c0 .523.094.886.281 1.094.196.199.399.296.61.296h.281c.082 0 .191-.02.328-.062l.61 3.703a5.04 5.04 0 0 1-1.047.281 7.686 7.686 0 0 1-1.47.125Zm0 0" fill="#919191" data-color="3"></path>
        <path d="M112.717 244.58v-16.86h5v16.86Zm0 0" fill="#919191" data-color="3"></path>
        <path d="M125.77 244.986c-.856 0-1.574-.297-2.156-.89-.575-.602-.86-1.348-.86-2.235 0-.906.285-1.656.86-2.25.582-.601 1.3-.906 2.156-.906.863 0 1.582.305 2.156.906.582.594.875 1.344.875 2.25 0 .887-.293 1.633-.875 2.235-.574.593-1.293.89-2.156.89Zm0 0" fill="#919191" data-color="3"></path>
        <path d="M141.841 244.58v-22.156h5v9.078h.141l6.594-9.078h5.5l-6.688 8.828 7.922 13.328h-5.484l-5.39-9.344-2.595 3.39v5.954Zm0 0" fill="#919191" data-color="3"></path>
        <path d="M170.333 244.986a8.41 8.41 0 0 1-3.11-.593 7.787 7.787 0 0 1-2.624-1.72c-.762-.75-1.371-1.671-1.828-2.765-.45-1.101-.672-2.351-.672-3.75 0-1.406.222-2.656.672-3.75.457-1.101 1.066-2.031 1.828-2.781a7.846 7.846 0 0 1 2.625-1.719c1-.394 2.035-.594 3.11-.594 1.062 0 2.081.2 3.062.594a7.925 7.925 0 0 1 2.625 1.719c.757.75 1.363 1.68 1.812 2.781.457 1.094.688 2.344.688 3.75 0 1.399-.23 2.649-.688 3.75-.45 1.094-1.055 2.016-1.812 2.766a7.864 7.864 0 0 1-2.625 1.719c-.98.394-2 .593-3.063.593Zm0-4.047c1.02 0 1.79-.425 2.313-1.28.52-.864.78-2.032.78-3.5 0-1.477-.26-2.645-.78-3.5-.524-.864-1.293-1.298-2.313-1.298-1.043 0-1.82.434-2.328 1.297-.512.856-.766 2.024-.766 3.5 0 1.469.254 2.637.766 3.5.508.856 1.285 1.281 2.328 1.281Zm0 0" fill="#919191" data-color="3"></path>
        <path d="M187.32 244.986c-.867 0-1.594-.136-2.188-.406a3.468 3.468 0 0 1-1.406-1.14c-.344-.489-.601-1.079-.766-1.766-.156-.688-.234-1.461-.234-2.328v-18.594h5v18.797c0 .523.094.886.281 1.094.196.199.399.296.61.296h.281c.082 0 .191-.02.328-.062l.61 3.703a5.04 5.04 0 0 1-1.047.281 7.686 7.686 0 0 1-1.47.125Zm0 0" fill="#919191" data-color="3"></path>
        <path d="M197.477 244.986a5.452 5.452 0 0 1-2.094-.39 4.575 4.575 0 0 1-1.578-1.078 5.084 5.084 0 0 1-1-1.625 5.4 5.4 0 0 1-.36-2c0-1.77.743-3.149 2.235-4.141 1.5-1 3.914-1.672 7.25-2.016-.043-.75-.261-1.343-.656-1.781-.398-.438-1.059-.656-1.984-.656-.73 0-1.453.136-2.172.406-.711.273-1.469.64-2.281 1.11l-1.813-3.297a17.892 17.892 0 0 1 3.422-1.594 11.59 11.59 0 0 1 3.781-.61c2.176 0 3.836.621 4.984 1.86 1.145 1.23 1.72 3.148 1.72 5.75v9.656h-4.079l-.344-1.734h-.14a10.508 10.508 0 0 1-2.266 1.547c-.793.394-1.668.593-2.625.593Zm1.703-3.875c.563 0 1.047-.125 1.453-.375.414-.25.848-.597 1.297-1.047v-2.953c-1.761.242-2.984.602-3.672 1.078-.68.48-1.015 1.047-1.015 1.704 0 .542.172.945.515 1.203.352.261.828.39 1.422.39Zm0 0" fill="#919191" data-color="3"></path>
        <path d="M213.794 251.174c-.523 0-.965-.031-1.328-.094a5.937 5.937 0 0 1-1.047-.25l.875-3.797a26 26 0 0 0 .547.125c.207.05.398.078.578.078.844 0 1.488-.21 1.938-.625.457-.406.797-.937 1.015-1.593l.25-.875-6.5-16.422h5.031l2.407 7.234c.25.773.476 1.559.687 2.36l.64 2.437h.142c.175-.79.359-1.586.546-2.39.196-.802.399-1.602.61-2.407l2.031-7.234h4.797l-5.844 17.03a22.043 22.043 0 0 1-1.281 2.798c-.438.812-.95 1.484-1.531 2.015a5.86 5.86 0 0 1-1.97 1.204c-.73.269-1.593.406-2.593.406Zm0 0" fill="#919191" data-color="3"></path>
        <path d="M233.297 244.986c-.856 0-1.574-.297-2.156-.89-.575-.602-.86-1.348-.86-2.235 0-.906.285-1.656.86-2.25.582-.601 1.3-.906 2.156-.906.863 0 1.582.305 2.156.906.582.594.875 1.344.875 2.25 0 .887-.293 1.633-.875 2.235-.574.593-1.293.89-2.156.89Zm0 0" fill="#919191" data-color="3"></path>
        <path d="M259.166 244.986c-1.523 0-2.945-.242-4.265-.718a9.713 9.713 0 0 1-3.454-2.157c-.968-.957-1.734-2.144-2.296-3.562-.555-1.414-.829-3.051-.829-4.906 0-1.844.282-3.485.844-4.922.57-1.438 1.348-2.649 2.328-3.641.989-1 2.141-1.758 3.453-2.281a11.27 11.27 0 0 1 4.188-.781c1.602 0 2.984.296 4.14.89 1.157.586 2.098 1.25 2.829 2l-2.625 3.188a9.166 9.166 0 0 0-1.797-1.25c-.637-.344-1.43-.516-2.375-.516-.867 0-1.656.168-2.375.5a5.246 5.246 0 0 0-1.844 1.406c-.523.617-.93 1.367-1.219 2.25-.28.875-.422 1.871-.422 2.985 0 2.28.516 4.054 1.547 5.312 1.032 1.262 2.594 1.89 4.688 1.89.445 0 .883-.054 1.312-.171.438-.113.79-.285 1.063-.516v-3.797h-3.672v-4.078h8.094V242.3c-.774.75-1.793 1.386-3.063 1.906-1.273.52-2.687.781-4.25.781Zm0 0" fill="#919191" data-color="3"></path>
        <path d="M276.489 244.986c-1.836 0-3.164-.597-3.985-1.797-.824-1.195-1.234-2.863-1.234-5v-10.468h4.984v9.828c0 1.219.164 2.058.5 2.515.344.45.88.672 1.61.672.632 0 1.164-.144 1.593-.437.438-.29.899-.766 1.391-1.422V227.72h5v16.859h-4.078l-.375-2.344h-.094c-.73.867-1.512 1.543-2.344 2.032-.824.476-1.812.718-2.968.718Zm-1.282-19.75c-.73 0-1.324-.226-1.78-.687-.45-.469-.673-1.051-.673-1.75 0-.676.223-1.25.672-1.719.457-.469 1.05-.703 1.781-.703.727 0 1.313.234 1.75.703.438.469.657 1.043.657 1.719 0 .699-.22 1.281-.657 1.75-.437.46-1.023.687-1.75.687Zm7.407 0c-.73 0-1.313-.226-1.75-.687-.438-.469-.657-1.051-.657-1.75 0-.676.22-1.25.657-1.719.437-.469 1.02-.703 1.75-.703.726 0 1.316.234 1.765.703.457.469.688 1.043.688 1.719 0 .699-.23 1.281-.688 1.75-.449.46-1.039.687-1.765.687Zm0 0" fill="#919191" data-color="3"></path>
        <path d="m295.386 244.58-5.672-16.86h5.031l2.172 7.954c.227.844.446 1.703.657 2.578.218.867.441 1.742.671 2.625h.141a89.72 89.72 0 0 1 .625-2.625c.219-.875.438-1.734.656-2.578l2.22-7.953h4.78l-5.5 16.859Zm0 0" fill="#919191" data-color="3"></path>
        <path d="M317.613 244.986c-1.2 0-2.32-.199-3.36-.593a7.677 7.677 0 0 1-2.718-1.735c-.774-.758-1.375-1.68-1.813-2.765-.43-1.094-.64-2.336-.64-3.735 0-1.363.222-2.594.672-3.687.457-1.102 1.054-2.036 1.796-2.797a7.792 7.792 0 0 1 2.532-1.75 7.404 7.404 0 0 1 2.953-.61c1.207 0 2.254.204 3.14.61a6.255 6.255 0 0 1 2.25 1.703c.602.73 1.051 1.59 1.344 2.578.29.98.438 2.047.438 3.203 0 .45-.028.883-.078 1.297-.043.406-.086.71-.125.906H313.91c.226 1.23.734 2.133 1.515 2.703.782.575 1.739.86 2.875.86 1.196 0 2.407-.367 3.625-1.11l1.672 3.016a11.241 11.241 0 0 1-2.875 1.406c-1.054.332-2.09.5-3.109.5Zm-3.734-10.672h6.078c0-.945-.215-1.71-.64-2.296-.43-.594-1.153-.891-2.173-.891a3.11 3.11 0 0 0-2.094.781c-.605.524-.996 1.324-1.171 2.406Zm0 0" fill="#919191" data-color="3"></path>
        <path d="M328.453 244.58v-16.86h4.078l.344 2.141h.14a13.376 13.376 0 0 1 2.376-1.781c.863-.508 1.875-.766 3.03-.766 1.833 0 3.161.606 3.985 1.813.832 1.2 1.25 2.86 1.25 4.984v10.469h-5v-9.828c0-1.219-.168-2.05-.5-2.5-.324-.457-.851-.688-1.578-.688-.637 0-1.183.141-1.64.422-.45.282-.946.684-1.485 1.203v11.391Zm0 0" fill="#919191" data-color="3"></path>
        <path d="M353.267 244.986c-.867 0-1.594-.136-2.188-.406a3.468 3.468 0 0 1-1.406-1.14c-.344-.489-.601-1.079-.765-1.766-.157-.688-.235-1.461-.235-2.328v-18.594h5v18.797c0 .523.094.886.281 1.094.196.199.399.296.61.296h.281c.082 0 .191-.02.328-.062l.61 3.703a5.04 5.04 0 0 1-1.047.281 7.686 7.686 0 0 1-1.47.125Zm0 0" fill="#919191" data-color="3"></path>
        <path d="M359.174 244.58v-16.86h5v16.86Zm2.485-19.344c-.836 0-1.528-.238-2.079-.718-.543-.489-.812-1.118-.812-1.891 0-.77.27-1.39.812-1.86.551-.476 1.243-.718 2.079-.718.863 0 1.562.242 2.093.719.531.468.797 1.09.797 1.859 0 .773-.265 1.402-.797 1.89-.531.481-1.23.72-2.094.72Zm0 0" fill="#919191" data-color="3"></path>
        <path d="M372.227 244.986c-.856 0-1.574-.297-2.156-.89-.575-.602-.86-1.348-.86-2.235 0-.906.285-1.656.86-2.25.582-.601 1.3-.906 2.156-.906.863 0 1.582.305 2.156.906.582.594.875 1.344.875 2.25 0 .887-.293 1.633-.875 2.235-.574.593-1.293.89-2.156.89Zm0 0" fill="#919191" data-color="3"></path>
        <path d="M388.29 244.58v-22.156h13.874v4.219h-8.875v4.453h7.547v4.172h-7.547v5.093h9.22v4.219Zm0 0" fill="#394d5a" data-color="4"></path>
        <path d="M411.882 244.986c-.867 0-1.594-.136-2.188-.406a3.468 3.468 0 0 1-1.406-1.14c-.344-.489-.601-1.079-.766-1.766-.156-.688-.234-1.461-.234-2.328v-18.594h5v18.797c0 .523.094.886.281 1.094.196.199.399.296.61.296h.281c.082 0 .191-.02.328-.062l.61 3.703a5.04 5.04 0 0 1-1.047.281 7.686 7.686 0 0 1-1.47.125Zm0 0" fill="#394d5a" data-color="4"></path>
        <path d="M425.336 244.986c-1.2 0-2.32-.199-3.36-.593a7.677 7.677 0 0 1-2.718-1.735c-.774-.758-1.375-1.68-1.813-2.765-.43-1.094-.64-2.336-.64-3.735 0-1.363.222-2.594.672-3.687.457-1.102 1.054-2.036 1.797-2.797a7.792 7.792 0 0 1 2.53-1.75 7.404 7.404 0 0 1 2.954-.61c1.207 0 2.254.204 3.14.61a6.255 6.255 0 0 1 2.25 1.703c.602.73 1.051 1.59 1.344 2.578.29.98.438 2.047.438 3.203 0 .45-.028.883-.078 1.297-.043.406-.086.71-.125.906h-10.094c.226 1.23.734 2.133 1.516 2.703.78.575 1.738.86 2.875.86 1.195 0 2.406-.367 3.625-1.11l1.671 3.016a11.241 11.241 0 0 1-2.875 1.406c-1.054.332-2.09.5-3.109.5Zm-3.734-10.672h6.078c0-.945-.215-1.71-.64-2.296-.43-.594-1.153-.891-2.173-.891a3.11 3.11 0 0 0-2.094.781c-.605.524-.996 1.324-1.171 2.406Zm0 0" fill="#394d5a" data-color="4"></path>
        <path d="M436.175 244.58v-23.828h4.86v13.672h.14l5.344-6.703h5.437l-5.922 6.937 6.36 9.922h-5.406l-3.813-6.563-2.14 2.422v4.141Zm0 0" fill="#394d5a" data-color="4"></path>
        <path d="M462.08 244.986c-1.043 0-1.933-.156-2.672-.468a4.779 4.779 0 0 1-1.812-1.329c-.461-.57-.797-1.257-1.016-2.062-.21-.8-.312-1.692-.312-2.672v-6.828h-2.313v-3.703l2.578-.203.578-4.485h4.157v4.485h4.03v3.906h-4.03v6.766c0 .949.195 1.636.593 2.062.395.418.922.625 1.579.625.269 0 .546-.031.828-.094.28-.07.535-.156.765-.25l.781 3.64c-.449.138-.98.27-1.593.407a10.2 10.2 0 0 1-2.14.203Zm0 0" fill="#394d5a" data-color="4"></path>
        <path d="M469.378 244.58v-16.86h4.078l.344 2.954h.14c.614-1.156 1.348-2.004 2.204-2.547.863-.54 1.726-.813 2.594-.813.468 0 .851.032 1.156.094a3.5 3.5 0 0 1 .844.25l-.813 4.313a7.434 7.434 0 0 0-.89-.203 6.756 6.756 0 0 0-.954-.063c-.636 0-1.297.23-1.984.688-.688.449-1.262 1.25-1.719 2.406v9.781Zm0 0" fill="#394d5a" data-color="4"></path>
        <path d="M490.935 244.986a8.41 8.41 0 0 1-3.11-.593 7.787 7.787 0 0 1-2.624-1.72c-.762-.75-1.371-1.671-1.828-2.765-.45-1.101-.672-2.351-.672-3.75 0-1.406.222-2.656.672-3.75.457-1.101 1.066-2.031 1.828-2.781a7.846 7.846 0 0 1 2.625-1.719c1-.394 2.035-.594 3.11-.594 1.062 0 2.081.2 3.062.594a7.925 7.925 0 0 1 2.625 1.719c.757.75 1.363 1.68 1.812 2.781.457 1.094.688 2.344.688 3.75 0 1.399-.23 2.649-.688 3.75-.45 1.094-1.055 2.016-1.812 2.766a7.864 7.864 0 0 1-2.625 1.719c-.98.394-2 .593-3.063.593Zm0-4.047c1.02 0 1.79-.425 2.313-1.28.52-.864.78-2.032.78-3.5 0-1.477-.26-2.645-.78-3.5-.524-.864-1.293-1.298-2.313-1.298-1.043 0-1.82.434-2.328 1.297-.512.856-.766 2.024-.766 3.5 0 1.469.254 2.637.766 3.5.508.856 1.285 1.281 2.328 1.281Zm0 0" fill="#394d5a" data-color="4"></path>
        <path d="M503.328 244.58v-16.86h4.078l.344 2.141h.14a13.376 13.376 0 0 1 2.376-1.781c.863-.508 1.875-.766 3.03-.766 1.833 0 3.161.606 3.985 1.813.832 1.2 1.25 2.86 1.25 4.984v10.469h-5v-9.828c0-1.219-.168-2.05-.5-2.5-.324-.457-.851-.688-1.578-.688-.637 0-1.183.141-1.64.422-.45.282-.946.684-1.485 1.203v11.391Zm0 0" fill="#394d5a" data-color="4"></path>
        <path d="M523.55 244.58v-16.86h5v16.86Zm2.484-19.344c-.836 0-1.528-.238-2.079-.718-.543-.489-.812-1.118-.812-1.891 0-.77.27-1.39.812-1.86.551-.476 1.243-.718 2.078-.718.864 0 1.563.242 2.094.719.532.468.797 1.09.797 1.859 0 .773-.265 1.402-.797 1.89-.531.481-1.23.72-2.093.72Zm0 0" fill="#394d5a" data-color="4"></path>
        <path d="M533.711 244.58v-23.828h4.86v13.672h.14l5.344-6.703h5.437l-5.921 6.937 6.359 9.922h-5.406l-3.813-6.563-2.14 2.422v4.141Zm0 0" fill="#394d5a" data-color="4"></path>
        <path d="M561.1 244.58v-22.156h5v22.156Zm2.485-23.828c-.836 0-1.528-.238-2.078-.719-.543-.488-.813-1.117-.813-1.89 0-.77.27-1.399.813-1.891.55-.488 1.242-.734 2.078-.734.832 0 1.52.246 2.062.734.551.492.828 1.121.828 1.89 0 .774-.277 1.403-.828 1.891-.543.48-1.23.719-2.062.719Zm0 0" fill="#394d5a" data-color="4"></path>
        <path d="M571.705 244.58v-16.86h4.078l.344 2.173h.14a13.57 13.57 0 0 1 2.235-1.813c.8-.508 1.754-.766 2.86-.766 1.195 0 2.163.246 2.906.735.738.492 1.32 1.187 1.75 2.094.75-.77 1.535-1.43 2.359-1.985.832-.562 1.813-.844 2.938-.844 1.812 0 3.14.61 3.984 1.829.851 1.21 1.281 2.867 1.281 4.968v10.469h-4.984v-9.828c0-1.219-.168-2.05-.5-2.5-.324-.457-.852-.688-1.578-.688-.836 0-1.797.543-2.891 1.625v11.391h-5v-9.828c0-1.219-.168-2.05-.5-2.5-.324-.457-.844-.688-1.563-.688-.867 0-1.82.543-2.859 1.625v11.391Zm0 0" fill="#394d5a" data-color="4"></path>
        <path d="M600.706 244.58v-2.688l7.062-10.265h-6.28v-3.906h12.5v2.656l-7.063 10.297h7.297v3.906Zm0 0" fill="#394d5a" data-color="4"></path>
        <path d="M622.276 244.986a5.452 5.452 0 0 1-2.094-.39 4.575 4.575 0 0 1-1.578-1.078 5.084 5.084 0 0 1-1-1.625 5.4 5.4 0 0 1-.36-2c0-1.77.743-3.149 2.235-4.141 1.5-1 3.914-1.672 7.25-2.016-.043-.75-.261-1.343-.656-1.781-.398-.438-1.059-.656-1.984-.656a6.13 6.13 0 0 0-2.172.406c-.711.273-1.469.64-2.282 1.11l-1.812-3.297a17.892 17.892 0 0 1 3.422-1.594 11.59 11.59 0 0 1 3.781-.61c2.176 0 3.836.621 4.985 1.86 1.144 1.23 1.718 3.148 1.718 5.75v9.656h-4.078l-.344-1.734h-.14a10.508 10.508 0 0 1-2.266 1.547c-.793.394-1.668.593-2.625.593Zm1.703-3.875c.563 0 1.047-.125 1.453-.375.414-.25.848-.597 1.297-1.047v-2.953c-1.761.242-2.984.602-3.672 1.078-.68.48-1.015 1.047-1.015 1.704 0 .542.172.945.515 1.203.352.261.828.39 1.422.39Zm0 0" fill="#394d5a" data-color="4"></path>
        <g clip-path="url(#e96b7eaf-3c31-4d07-9f8f-892e1a8d4f1a_comp-lgdnckkt)">
            <path d="M95.617 90.738c-18.394 0-33.305 14.977-33.305 33.45v33.449h13.32v-33.45c0-11.082 8.946-20.07 19.985-20.07 11.035 0 19.985 8.988 19.985 20.07v33.45h13.32v-33.45c0-18.472-14.91-33.449-33.305-33.449Zm0 0" fill="#ff225c" data-color="2"></path>
        </g>
        <g clip-path="url(#09732806-4f6b-4082-a91b-087865bddace_comp-lgdnckkt)">
            <path d="M138.914 187.742c0 7.39-5.965 13.38-13.324 13.38H65.645c-7.36 0-13.325-5.99-13.325-13.38v-40.14c0-7.387 5.965-13.38 13.325-13.38h59.945c7.36 0 13.324 5.993 13.324 13.38Zm0 0" fill="#ff225c" data-color="2"></path>
        </g>
        <g clip-path="url(#057858b7-4260-435a-b674-6889500eda36_comp-lgdnckkt)">
            <path d="M84.586 164.133v-17.809l43.195 21.2h-24.734Zm0 9.633 18.41-3.266h24.758l-43.168 21.2Zm0 0" fill="#ffffff" data-color="5"></path>
        </g>
        <g clip-path="url(#b71cbb09-b112-426b-a18a-cca10f87fc0a_comp-lgdnckkt)">
            <path d="M64.484 142.5h10.477v2.969H64.484Zm0 0" fill="#ffffff" data-color="5"></path>
        </g>
        <path d="M69.727 154.938h5.238v2.972h-5.238Zm0 0" fill="#ffffff" data-color="5"></path>
        <g clip-path="url(#bb5f5519-0900-4c7f-a463-1e92e176bfe5_comp-lgdnckkt)">
            <path d="M64.484 154.938h2.903v2.972h-2.903Zm0 0" fill="#ffffff" data-color="5"></path>
        </g>
        <g clip-path="url(#c5c7cbb1-d720-4f8e-8224-a32373f82d2e_comp-lgdnckkt)">
            <path d="M64.484 180.11h2.903v2.824h-2.903Zm0 0" fill="#ffffff" data-color="5"></path>
        </g>
        <g clip-path="url(#1c238e74-0b57-4f2e-9f02-79e9272bc761_comp-lgdnckkt)">
            <path d="M64.484 167.523h10.477v2.973H64.484Zm0 0" fill="#ffffff" data-color="5"></path>
        </g>
        <path d="M69.727 180.11h5.238v2.824h-5.238Zm0 0" fill="#ffffff" data-color="5"></path>
        <g clip-path="url(#461edd2d-6347-4a1e-b915-af039319e171_comp-lgdnckkt)">
            <path d="M64.484 192.55h10.477v2.97H64.484Zm0 0" fill="#ffffff" data-color="5"></path>
        </g>
    </g>
</svg>